#!OML:ASF F:\VICON\USERDATA\INSTALL\rory3\rory3.ASF
:FULLY-SPECIFIED
:DEGREES
2373
root 0.565941 18.3908 -4.07336 6.51755 -15.2448 2.70361
lowerback 10.3645 0.569175 0.544929
upperback 1.33536 0.937567 2.7561
thorax -4.45886 0.470116 2.43559
lowerneck -23.1387 -2.19307 -9.88113
upperneck 21.886 -0.534505 3.72217
head 10.9534 -0.613855 2.90354
rclavicle -3.65764e-014 -3.65764e-014
rhumerus -23.0234 17.3461 -89.0016
rradius 123.585
rwrist -2.03671
rhand -13.2159 25.9055
rfingers 7.12502
rthumb 12.885 -3.6767
lclavicle -3.65764e-014 -3.65764e-014
lhumerus -6.83892 -8.18415 85.6005
lradius 125.539
lwrist -2.30159
lhand -9.01627 7.24462
lfingers 7.12502
lthumb 16.9308 36.5267
rfemur -18.2711 -1.16688 13.6457
rtibia 43.7793
rfoot -12.6436 2.30136
rtoes -6.9398
lfemur -27.4775 13.756 -15.6262
ltibia 58.1345
lfoot 2.68089 2.5914
ltoes -22.2145
2374
root 0.559097 18.4176 -4.03395 6.57347 -15.9883 2.87641
lowerback 10.3914 0.768418 0.215332
upperback 1.29117 1.1595 2.60384
thorax -4.53194 0.584875 2.43087
lowerneck -22.6793 -2.09073 -9.80881
upperneck 21.6755 -0.456594 3.67118
head 10.7835 -0.575588 2.87921
rclavicle -4.77083e-014 -3.18055e-015
rhumerus -22.7971 17.384 -88.87
rradius 123.603
rwrist -2.3987
rhand -13.201 25.6052
rfingers 7.12502
rthumb 12.8994 -3.97617
lclavicle -4.77083e-014 -3.18055e-015
lhumerus -6.56644 -8.12036 85.1299
lradius 125.22
lwrist -2.76974
lhand -9.10171 7.19753
lfingers 7.12502
lthumb 16.8485 36.4866
rfemur -18.1971 -1.40082 13.51
rtibia 45.3789
rfoot -13.1606 1.26788
rtoes -7.25451
lfemur -28.496 13.9852 -15.8844
ltibia 56.7075
lfoot 2.16659 3.53176
ltoes -21.8685
2375
root 0.550643 18.4367 -3.99453 6.61419 -16.5546 3.05394
lowerback 10.3997 0.893077 -0.107923
upperback 1.24766 1.28248 2.45063
thorax -4.59059 0.650833 2.43549
lowerneck -22.2457 -1.948 -9.818
upperneck 21.4924 -0.317554 3.72298
head 10.6246 -0.503748 2.91576
rclavicle 1.82882e-014 3.65764e-014
rhumerus -22.4669 17.4653 -88.7083
rradius 123.482
rwrist -2.45096
rhand -13.3019 25.4303
rfingers 7.12502
rthumb 12.8022 -4.15718
lclavicle 1.82882e-014 3.65764e-014
lhumerus -6.34685 -7.9916 84.6483
lradius 124.981
lwrist -3.38581
lhand -9.019 7.04782
lfingers 7.12502
lthumb 16.9281 36.3301
rfemur -18.0537 -1.78451 13.3867
rtibia 47.088
rfoot -13.2154 0.856023
rtoes -8.52902
lfemur -29.4601 13.9068 -16.0873
ltibia 54.9906
lfoot 1.71864 4.27296
ltoes -21.9781
2376
root 0.537145 18.4451 -3.956 6.5844 -16.9724 3.10685
lowerback 10.5808 0.980606 -0.36736
upperback 1.24365 1.36569 2.34483
thorax -4.70273 0.696325 2.45755
lowerneck -22.1539 -1.82111 -9.79587
upperneck 21.4878 -0.16599 3.75055
head 10.5936 -0.429613 2.94477
rclavicle -2.42517e-014 -1.59028e-014
rhumerus -22.0376 17.528 -88.5774
rradius 123.393
rwrist -2.7085
rhand -13.0634 25.1945
rfingers 7.12502
rthumb 13.032 -4.37845
lclavicle -2.42517e-014 -1.59028e-014
lhumerus -5.98549 -7.87498 84.1225
lradius 124.737
lwrist -3.90373
lhand -8.9538 6.87304
lfingers 7.12502
lthumb 16.9909 36.1499
rfemur -17.7021 -2.168 13.4269
rtibia 48.7633
rfoot -13.0617 0.828722
rtoes -9.49096
lfemur -30.2608 13.5971 -16.0328
ltibia 53.0211
lfoot 1.51189 4.79556
ltoes -21.5108
2377
root 0.520908 18.4389 -3.91194 6.47129 -17.3285 3.03863
lowerback 10.8201 1.06217 -0.512684
upperback 1.25485 1.4547 2.27482
thorax -4.83026 0.742808 2.45057
lowerneck -21.9441 -1.68812 -9.78147
upperneck 21.4255 -0.0102883 3.75372
head 10.5196 -0.35624 2.96465
rclavicle 1.98785e-015 9.54166e-015
rhumerus -21.6709 17.5227 -88.5162
rradius 123.271
rwrist -2.93482
rhand -12.7916 25.0757
rfingers 7.12502
rthumb 13.2941 -4.48026
lclavicle 1.98785e-015 9.54166e-015
lhumerus -5.56696 -7.80462 83.6342
lradius 124.477
lwrist -4.29662
lhand -8.72699 6.66889
lfingers 7.12502
lthumb 17.2092 35.9268
rfemur -17.0654 -2.45578 13.5772
rtibia 50.2537
rfoot -12.7518 1.17408
rtoes -10.6536
lfemur -30.8056 13.123 -15.7037
ltibia 50.8386
lfoot 1.13406 5.01264
ltoes -22.5179
2378
root 0.504464 18.4184 -3.86525 6.4365 -17.5183 2.8738
lowerback 10.9137 1.08005 -0.501827
upperback 1.26939 1.47614 2.20311
thorax -4.86587 0.752481 2.36496
lowerneck -21.7392 -1.54005 -9.80148
upperneck 21.3561 0.161529 3.82339
head 10.4423 -0.269641 3.01626
rclavicle -5.1684e-015 -1.82882e-014
rhumerus -21.2633 17.469 -88.5385
rradius 122.997
rwrist -2.72048
rhand -12.8675 25.134
rfingers 7.12502
rthumb 13.2209 -4.42676
lclavicle -5.1684e-015 -1.82882e-014
lhumerus -5.07567 -7.8059 83.196
lradius 124.215
lwrist -4.58128
lhand -8.46508 6.6131
lfingers 7.12502
lthumb 17.4613 35.8489
rfemur -16.304 -2.79691 13.8177
rtibia 51.4181
rfoot -12.2349 1.89039
rtoes -10.7985
lfemur -31.3763 12.2743 -15.1424
ltibia 48.4967
lfoot 0.131255 5.16613
ltoes -26.1403
2379
root 0.488895 18.3846 -3.81297 6.42769 -17.5836 2.6523
lowerback 10.8655 1.02964 -0.39319
upperback 1.35193 1.41656 2.13712
thorax -4.7454 0.719071 2.24428
lowerneck -21.7309 -1.39577 -9.75632
upperneck 21.35 0.351372 3.80407
head 10.4235 -0.181238 3.0298
rclavicle -9.34288e-015 -1.59028e-014
rhumerus -20.6944 17.4764 -88.5365
rradius 122.662
rwrist -2.4814
rhand -12.9033 25.2624
rfingers 7.12502
rthumb 13.1864 -4.30055
lclavicle -9.34288e-015 -1.59028e-014
lhumerus -4.42618 -7.79455 82.7952
lradius 123.902
lwrist -4.84384
lhand -8.25744 6.5601
lfingers 7.12502
lthumb 17.6611 35.778
rfemur -15.3311 -3.24925 14.1
rtibia 52.1474
rfoot -11.3558 2.88556
rtoes -9.23226
lfemur -31.9169 11.1192 -14.4166
ltibia 46.0902
lfoot 0.767662 4.76032
ltoes -24.9514
2380
root 0.472636 18.3408 -3.75501 6.39465 -17.5719 2.32571
lowerback 10.8102 0.975968 -0.170548
upperback 1.42576 1.3678 2.10757
thorax -4.62918 0.689577 2.09573
lowerneck -21.5349 -1.27214 -9.64136
upperneck 21.2237 0.506914 3.63176
head 10.3308 -0.119158 2.9671
rclavicle -4.21423e-014 -6.36111e-015
rhumerus -20.3205 17.4585 -88.5473
rradius 122.406
rwrist -2.4103
rhand -12.9877 25.4366
rfingers 7.12502
rthumb 13.105 -4.13166
lclavicle -4.21423e-014 -6.36111e-015
lhumerus -3.85947 -7.804 82.5409
lradius 123.573
lwrist -4.93423
lhand -8.20809 6.56261
lfingers 7.12502
lthumb 17.7086 35.7762
rfemur -14.0784 -3.72079 14.514
rtibia 52.3723
rfoot -10.3654 3.66584
rtoes -8.66925
lfemur -32.3313 9.67795 -13.4338
ltibia 43.7349
lfoot 1.4386 4.37954
ltoes -25.4611
2381
root 0.453643 18.2797 -3.69688 6.43844 -17.4409 1.90358
lowerback 10.7779 0.922084 0.0679044
upperback 1.37599 1.32798 2.1683
thorax -4.65786 0.666578 2.03062
lowerneck -21.1464 -1.15908 -9.72909
upperneck 21.1277 0.660348 3.58777
head 10.2135 -0.0602487 2.98267
rclavicle 5.54609e-014 -5.56597e-015
rhumerus -20.2493 17.3976 -88.5139
rradius 122.247
rwrist -2.46841
rhand -13.216 25.5119
rfingers 7.12502
rthumb 12.885 -4.07036
lclavicle 5.54609e-014 -5.56597e-015
lhumerus -3.51847 -7.83223 82.5231
lradius 123.251
lwrist -4.92233
lhand -8.1718 6.64845
lfingers 7.12502
lthumb 17.7435 35.8589
rfemur -12.6941 -4.07729 15.0984
rtibia 52.0519
rfoot -9.57196 4.00248
rtoes -9.19099
lfemur -32.8544 8.06891 -12.2492
ltibia 41.5589
lfoot 2.23278 3.80332
ltoes -26.7498
2382
root 0.431507 18.1983 -3.63619 6.58525 -17.2615 1.53193
lowerback 10.5329 0.845506 0.246036
upperback 1.34543 1.24598 2.19584
thorax -4.54732 0.623246 1.97316
lowerneck -20.9556 -1.03035 -9.85017
upperneck 21.1029 0.834388 3.67824
head 10.1549 0.0209569 3.05787
rclavicle 5.04913e-014 7.95139e-016
rhumerus -20.0095 17.2589 -88.5193
rradius 122.028
rwrist -2.53816
rhand -13.2767 25.4962
rfingers 7.12502
rthumb 12.8265 -4.08969
lclavicle 5.04913e-014 7.95139e-016
lhumerus -2.99299 -7.79477 82.4442
lradius 122.878
lwrist -4.87747
lhand -8.08226 6.64187
lfingers 7.12502
lthumb 17.8297 35.8445
rfemur -11.2944 -4.36061 15.6798
rtibia 51.191
rfoot -8.94918 4.05881
rtoes -9.98148
lfemur -33.5602 6.50593 -11.0791
ltibia 39.6602
lfoot 3.26197 2.88557
ltoes -27.8755
2383
root 0.406325 18.1069 -3.56915 6.75926 -17.1612 1.05345
lowerback 10.1337 0.810069 0.5417
upperback 1.38895 1.22439 2.1943
thorax -4.27267 0.607121 1.81183
lowerneck -20.9185 -0.906656 -9.82803
upperneck 21.096 0.987985 3.70655
head 10.1331 0.0970558 3.0858
rclavicle -3.97569e-014 -9.54166e-015
rhumerus -19.6619 17.0162 -88.5278
rradius 121.769
rwrist -2.65096
rhand -13.3157 25.3936
rfingers 7.12502
rthumb 12.7888 -4.19469
lclavicle -3.97569e-014 -9.54166e-015
lhumerus -2.30474 -7.72584 82.3137
lradius 122.474
lwrist -4.76682
lhand -7.93061 6.48549
lfingers 7.12502
lthumb 17.9756 35.6748
rfemur -9.73218 -4.41503 16.4048
rtibia 49.8025
rfoot -8.38027 3.97621
rtoes -10.3085
lfemur -34.2006 5.08825 -9.72799
ltibia 38.0401
lfoot 4.41868 1.81989
ltoes -29.3499
2384
root 0.382134 17.9971 -3.50102 6.89083 -17.0923 0.546075
lowerback 9.85213 0.805536 0.823895
upperback 1.35788 1.24627 2.24235
thorax -4.14408 0.614031 1.70266
lowerneck -20.8406 -0.807399 -9.89838
upperneck 21.1883 1.13771 3.71737
head 10.1402 0.158349 3.12374
rclavicle -4.39314e-014 -3.18055e-014
rhumerus -19.5714 16.8058 -88.4387
rradius 121.541
rwrist -2.74092
rhand -13.7133 25.7174
rfingers 7.12502
rthumb 12.4055 -3.89445
lclavicle -4.39314e-014 -3.18055e-014
lhumerus -1.84817 -7.64185 82.357
lradius 122.169
lwrist -4.85117
lhand -7.77209 6.41292
lfingers 7.12502
lthumb 18.1281 35.5881
rfemur -8.02735 -4.30219 17.2042
rtibia 47.9664
rfoot -7.75808 3.75867
rtoes -10.1657
lfemur -34.9658 3.77722 -8.32316
ltibia 36.8932
lfoot 5.72373 1.02177
ltoes -30.9862
2385
root 0.357771 17.8667 -3.43311 6.94174 -17.1409 0.219022
lowerback 9.72445 0.851926 0.849847
upperback 1.21236 1.31424 2.28629
thorax -4.22685 0.648209 1.72563
lowerneck -20.5446 -0.701884 -10.0581
upperneck 21.2191 1.312 3.67716
head 10.0837 0.218451 3.15742
rclavicle 3.45885e-014 3.97569e-015
rhumerus -19.8008 16.6407 -88.4168
rradius 121.346
rwrist -2.64908
rhand -14.3737 26.2518
rfingers 7.12502
rthumb 11.7688 -3.39759
lclavicle 3.45885e-014 3.97569e-015
lhumerus -1.68551 -7.50016 82.4824
lradius 121.994
lwrist -5.19776
lhand -7.69803 6.49506
lfingers 7.12502
lthumb 18.1994 35.6637
rfemur -6.31124 -3.93212 17.8885
rtibia 45.8323
rfoot -7.30273 3.71702
rtoes -9.68005
lfemur -35.9051 2.53415 -7.09698
ltibia 36.1908
lfoot 7.22201 0.860656
ltoes -31.8065
